<svg width="299" height="110" viewBox="0 0 299 110" fill="none" xmlns="http://www.w3.org/2000/svg">
<path d="M16.744 72.22C19.1013 72.22 21.1813 72.8093 22.984 73.988C24.8213 75.132 26.2773 76.7267 27.352 78.772C28.4267 80.7827 28.964 83.1053 28.964 85.74C28.964 88.3747 28.4267 90.7147 27.352 92.76C26.2773 94.8053 24.8213 96.4173 22.984 97.596C21.1467 98.7747 19.084 99.364 16.796 99.364C15.5827 99.364 14.4213 99.1907 13.312 98.844C12.2373 98.4627 11.2493 97.96 10.348 97.336C9.44667 96.712 8.64933 95.984 7.956 95.152C7.26267 94.2853 6.708 93.3493 6.292 92.344L7.228 91.668V107.84C7.228 108.256 7.072 108.62 6.76 108.932C6.48267 109.244 6.11867 109.4 5.668 109.4C5.21733 109.4 4.836 109.244 4.524 108.932C4.24667 108.62 4.108 108.256 4.108 107.84V73.936C4.108 73.4853 4.24667 73.104 4.524 72.792C4.80133 72.48 5.18267 72.324 5.668 72.324C6.11867 72.324 6.48267 72.48 6.76 72.792C7.072 73.104 7.228 73.4853 7.228 73.936V79.552L6.5 79.136C6.84667 78.0613 7.34933 77.108 8.008 76.276C8.70133 75.4093 9.49867 74.6813 10.4 74.092C11.3013 73.468 12.2893 73 13.364 72.688C14.4387 72.376 15.5653 72.22 16.744 72.22ZM16.484 75.132C14.612 75.132 12.9653 75.6 11.544 76.536C10.1227 77.4373 8.996 78.6853 8.164 80.28C7.36667 81.84 6.968 83.66 6.968 85.74C6.968 87.7853 7.36667 89.6227 8.164 91.252C8.996 92.8813 10.1227 94.164 11.544 95.1C12.9653 96.0013 14.612 96.452 16.484 96.452C18.3213 96.452 19.9333 96.0013 21.32 95.1C22.7413 94.164 23.868 92.8813 24.7 91.252C25.532 89.6227 25.948 87.7853 25.948 85.74C25.948 83.6947 25.532 81.8747 24.7 80.28C23.868 78.6853 22.7413 77.4373 21.32 76.536C19.9333 75.6 18.3213 75.132 16.484 75.132ZM39.2312 99C38.7458 99 38.3645 98.844 38.0872 98.532C37.8098 98.22 37.6712 97.856 37.6712 97.44V74.144C37.6712 73.728 37.8098 73.364 38.0872 73.052C38.3992 72.74 38.7805 72.584 39.2312 72.584C39.6818 72.584 40.0458 72.74 40.3232 73.052C40.6352 73.364 40.7912 73.728 40.7912 74.144V81.944L40.0112 82.1C40.1152 80.8867 40.4098 79.6907 40.8952 78.512C41.4152 77.2987 42.1085 76.1893 42.9752 75.184C43.8418 74.1787 44.8645 73.364 46.0432 72.74C47.2565 72.116 48.6085 71.804 50.0992 71.804C50.7232 71.804 51.3298 71.9427 51.9192 72.22C52.5085 72.4627 52.8032 72.8787 52.8032 73.468C52.8032 73.988 52.6645 74.3867 52.3872 74.664C52.1098 74.9413 51.7805 75.08 51.3992 75.08C51.0872 75.08 50.7405 74.9933 50.3592 74.82C50.0125 74.6467 49.5445 74.56 48.9552 74.56C47.9845 74.56 47.0138 74.8547 46.0432 75.444C45.0725 75.9987 44.1885 76.7613 43.3912 77.732C42.5938 78.7027 41.9525 79.7947 41.4672 81.008C41.0165 82.1867 40.7912 83.3827 40.7912 84.596V97.44C40.7912 97.856 40.6352 98.22 40.3232 98.532C40.0112 98.844 39.6472 99 39.2312 99ZM83.291 85.688C83.291 88.3227 82.719 90.6973 81.575 92.812C80.431 94.892 78.871 96.5387 76.895 97.752C74.919 98.9307 72.6657 99.52 70.135 99.52C67.6737 99.52 65.4377 98.9307 63.427 97.752C61.451 96.5387 59.8737 94.892 58.695 92.812C57.551 90.6973 56.979 88.3227 56.979 85.688C56.979 83.0187 57.551 80.644 58.695 78.564C59.8737 76.484 61.451 74.8373 63.427 73.624C65.4377 72.4107 67.6737 71.804 70.135 71.804C72.6657 71.804 74.919 72.4107 76.895 73.624C78.871 74.8373 80.431 76.484 81.575 78.564C82.719 80.644 83.291 83.0187 83.291 85.688ZM80.171 85.688C80.171 83.5733 79.7377 81.7013 78.871 80.072C78.0043 78.408 76.8083 77.108 75.283 76.172C73.7923 75.2013 72.0763 74.716 70.135 74.716C68.263 74.716 66.5643 75.2013 65.039 76.172C63.5137 77.108 62.3003 78.408 61.399 80.072C60.5323 81.7013 60.099 83.5733 60.099 85.688C60.099 87.8027 60.5323 89.6747 61.399 91.304C62.3003 92.9333 63.5137 94.2333 65.039 95.204C66.5643 96.14 68.263 96.608 70.135 96.608C72.0763 96.608 73.7923 96.14 75.283 95.204C76.8083 94.2333 78.0043 92.9333 78.871 91.304C79.7377 89.6747 80.171 87.8027 80.171 85.688ZM101.57 60.728C102.09 60.728 102.644 60.78 103.234 60.884C103.858 60.988 104.395 61.1787 104.846 61.456C105.296 61.6987 105.522 62.08 105.522 62.6C105.522 62.9813 105.383 63.328 105.106 63.64C104.828 63.9173 104.516 64.056 104.17 64.056C103.823 64.056 103.39 63.9693 102.87 63.796C102.35 63.588 101.795 63.484 101.206 63.484C100.478 63.484 99.8538 63.6573 99.3338 64.004C98.8138 64.316 98.4151 64.784 98.1378 65.408C97.8605 65.9973 97.7218 66.7253 97.7218 67.592V97.44C97.7218 97.856 97.5658 98.22 97.2538 98.532C96.9765 98.844 96.6125 99 96.1618 99C95.7111 99 95.3298 98.844 95.0178 98.532C94.7405 98.22 94.6018 97.856 94.6018 97.44V67.592C94.6018 65.3733 95.2431 63.6747 96.5258 62.496C97.8431 61.3173 99.5245 60.728 101.57 60.728ZM103.546 72.948C103.962 72.948 104.308 73.0867 104.586 73.364C104.863 73.6413 105.002 73.988 105.002 74.404C105.002 74.82 104.863 75.1667 104.586 75.444C104.308 75.7213 103.962 75.86 103.546 75.86H90.8058C90.4245 75.86 90.0778 75.7213 89.7658 75.444C89.4885 75.132 89.3498 74.7853 89.3498 74.404C89.3498 73.9533 89.4885 73.6067 89.7658 73.364C90.0778 73.0867 90.4245 72.948 90.8058 72.948H103.546ZM113.686 97.44C113.686 97.856 113.53 98.22 113.218 98.532C112.906 98.844 112.542 99 112.126 99C111.675 99 111.294 98.844 110.982 98.532C110.704 98.22 110.566 97.856 110.566 97.44V73.52C110.566 73.104 110.704 72.74 110.982 72.428C111.294 72.116 111.675 71.96 112.126 71.96C112.576 71.96 112.94 72.116 113.218 72.428C113.53 72.74 113.686 73.104 113.686 73.52V97.44ZM112.126 68.476C111.398 68.476 110.843 68.32 110.462 68.008C110.115 67.6613 109.942 67.176 109.942 66.552V66.032C109.942 65.408 110.132 64.94 110.514 64.628C110.93 64.2813 111.484 64.108 112.178 64.108C112.836 64.108 113.339 64.2813 113.686 64.628C114.067 64.94 114.258 65.408 114.258 66.032V66.552C114.258 67.176 114.067 67.6613 113.686 68.008C113.339 68.32 112.819 68.476 112.126 68.476ZM135.486 71.804C137.15 71.804 138.676 71.9947 140.062 72.376C141.449 72.7227 142.558 73.208 143.39 73.832C144.257 74.456 144.69 75.132 144.69 75.86C144.69 76.2067 144.569 76.5533 144.326 76.9C144.084 77.212 143.754 77.368 143.338 77.368C142.922 77.368 142.576 77.264 142.298 77.056C142.056 76.848 141.796 76.6053 141.518 76.328C141.276 76.0507 140.912 75.7907 140.426 75.548C139.976 75.34 139.334 75.1493 138.502 74.976C137.67 74.8027 136.717 74.716 135.642 74.716C133.701 74.716 131.95 75.2013 130.39 76.172C128.83 77.1427 127.6 78.46 126.698 80.124C125.797 81.7533 125.346 83.5907 125.346 85.636C125.346 87.716 125.78 89.588 126.646 91.252C127.513 92.916 128.709 94.2333 130.234 95.204C131.76 96.14 133.545 96.608 135.59 96.608C136.977 96.608 138.052 96.4867 138.814 96.244C139.577 96.0013 140.236 95.724 140.79 95.412C141.449 95.0307 141.917 94.6667 142.194 94.32C142.506 93.9387 142.905 93.748 143.39 93.748C143.841 93.748 144.17 93.8867 144.378 94.164C144.621 94.4067 144.742 94.736 144.742 95.152C144.742 95.7067 144.326 96.3307 143.494 97.024C142.697 97.6827 141.588 98.272 140.166 98.792C138.745 99.2773 137.116 99.52 135.278 99.52C132.678 99.52 130.39 98.9133 128.414 97.7C126.473 96.4867 124.948 94.84 123.838 92.76C122.764 90.6453 122.226 88.2707 122.226 85.636C122.226 83.1053 122.781 80.8 123.89 78.72C125 76.64 126.542 74.976 128.518 73.728C130.529 72.4453 132.852 71.804 135.486 71.804ZM155.744 97.44C155.744 97.856 155.588 98.22 155.276 98.532C154.964 98.844 154.6 99 154.184 99C153.734 99 153.352 98.844 153.04 98.532C152.763 98.22 152.624 97.856 152.624 97.44V73.52C152.624 73.104 152.763 72.74 153.04 72.428C153.352 72.116 153.734 71.96 154.184 71.96C154.635 71.96 154.999 72.116 155.276 72.428C155.588 72.74 155.744 73.104 155.744 73.52V97.44ZM154.184 68.476C153.456 68.476 152.902 68.32 152.52 68.008C152.174 67.6613 152 67.176 152 66.552V66.032C152 65.408 152.191 64.94 152.572 64.628C152.988 64.2813 153.543 64.108 154.236 64.108C154.895 64.108 155.398 64.2813 155.744 64.628C156.126 64.94 156.316 65.408 156.316 66.032V66.552C156.316 67.176 156.126 67.6613 155.744 68.008C155.398 68.32 154.878 68.476 154.184 68.476ZM177.89 99.52C175.22 99.52 172.863 98.948 170.818 97.804C168.772 96.66 167.178 95.0653 166.034 93.02C164.89 90.9747 164.318 88.5827 164.318 85.844C164.318 82.8973 164.89 80.384 166.034 78.304C167.212 76.224 168.72 74.6293 170.558 73.52C172.43 72.376 174.406 71.804 176.486 71.804C178.011 71.804 179.484 72.0813 180.906 72.636C182.362 73.156 183.644 73.9533 184.754 75.028C185.898 76.068 186.799 77.3507 187.458 78.876C188.151 80.4013 188.532 82.1693 188.602 84.18C188.567 84.596 188.394 84.96 188.082 85.272C187.77 85.5493 187.406 85.688 186.99 85.688H166.138L165.514 82.88H186.002L185.326 83.504V82.464C185.187 80.8347 184.667 79.448 183.766 78.304C182.864 77.16 181.772 76.2933 180.49 75.704C179.207 75.1147 177.872 74.82 176.486 74.82C175.446 74.82 174.371 75.028 173.262 75.444C172.187 75.86 171.199 76.5187 170.298 77.42C169.431 78.2867 168.72 79.4133 168.166 80.8C167.611 82.152 167.334 83.764 167.334 85.636C167.334 87.6813 167.75 89.536 168.582 91.2C169.414 92.864 170.61 94.1813 172.17 95.152C173.764 96.1227 175.654 96.608 177.838 96.608C179.051 96.608 180.143 96.4347 181.114 96.088C182.084 95.7413 182.934 95.2907 183.662 94.736C184.39 94.1467 184.996 93.54 185.482 92.916C185.863 92.604 186.244 92.448 186.626 92.448C186.972 92.448 187.267 92.5867 187.51 92.864C187.787 93.1413 187.926 93.4533 187.926 93.8C187.926 94.216 187.752 94.58 187.406 94.892C186.366 96.14 185.014 97.232 183.35 98.168C181.686 99.0693 179.866 99.52 177.89 99.52ZM177.266 64.576L172.742 68.372C172.499 68.58 172.274 68.7533 172.066 68.892C171.892 69.0307 171.667 69.1 171.39 69.1C171.147 69.1 170.939 69.0133 170.766 68.84C170.592 68.6667 170.506 68.476 170.506 68.268C170.506 68.1293 170.523 67.9907 170.558 67.852C170.627 67.7133 170.748 67.5747 170.922 67.436L174.718 63.276C175.099 62.6867 175.671 62.392 176.434 62.392H177.266C177.647 62.392 177.959 62.4613 178.202 62.6C178.479 62.704 178.722 62.9293 178.93 63.276L182.674 67.384C182.812 67.5573 182.899 67.7133 182.934 67.852C183.003 67.956 183.038 68.0947 183.038 68.268C183.038 68.4413 182.951 68.6147 182.778 68.788C182.639 68.9613 182.448 69.048 182.206 69.048C181.928 69.048 181.686 68.9787 181.478 68.84C181.27 68.7013 181.044 68.528 180.802 68.32L176.174 64.628L177.266 64.576ZM209.84 71.804C212.128 71.804 213.948 72.272 215.3 73.208C216.687 74.1093 217.675 75.3573 218.264 76.952C218.888 78.512 219.2 80.2453 219.2 82.152V97.44C219.2 97.856 219.044 98.22 218.732 98.532C218.42 98.844 218.056 99 217.64 99C217.155 99 216.773 98.844 216.496 98.532C216.219 98.22 216.08 97.856 216.08 97.44V82.308C216.08 80.9213 215.855 79.656 215.404 78.512C214.953 77.368 214.208 76.4493 213.168 75.756C212.163 75.0627 210.828 74.716 209.164 74.716C207.673 74.716 206.252 75.0627 204.9 75.756C203.583 76.4493 202.508 77.368 201.676 78.512C200.844 79.656 200.428 80.9213 200.428 82.308V97.44C200.428 97.856 200.272 98.22 199.96 98.532C199.648 98.844 199.284 99 198.868 99C198.383 99 198.001 98.844 197.724 98.532C197.447 98.22 197.308 97.856 197.308 97.44V74.144C197.308 73.728 197.447 73.364 197.724 73.052C198.036 72.74 198.417 72.584 198.868 72.584C199.319 72.584 199.683 72.74 199.96 73.052C200.272 73.364 200.428 73.728 200.428 74.144V78.512L199.232 80.384C199.301 79.2747 199.648 78.2173 200.272 77.212C200.931 76.172 201.763 75.2533 202.768 74.456C203.773 73.624 204.883 72.9827 206.096 72.532C207.344 72.0467 208.592 71.804 209.84 71.804ZM241.098 71.804C242.762 71.804 244.288 71.9947 245.674 72.376C247.061 72.7227 248.17 73.208 249.002 73.832C249.869 74.456 250.302 75.132 250.302 75.86C250.302 76.2067 250.181 76.5533 249.938 76.9C249.696 77.212 249.366 77.368 248.95 77.368C248.534 77.368 248.188 77.264 247.91 77.056C247.668 76.848 247.408 76.6053 247.13 76.328C246.888 76.0507 246.524 75.7907 246.038 75.548C245.588 75.34 244.946 75.1493 244.114 74.976C243.282 74.8027 242.329 74.716 241.254 74.716C239.313 74.716 237.562 75.2013 236.002 76.172C234.442 77.1427 233.212 78.46 232.31 80.124C231.409 81.7533 230.958 83.5907 230.958 85.636C230.958 87.716 231.392 89.588 232.258 91.252C233.125 92.916 234.321 94.2333 235.846 95.204C237.372 96.14 239.157 96.608 241.202 96.608C242.589 96.608 243.664 96.4867 244.426 96.244C245.189 96.0013 245.848 95.724 246.402 95.412C247.061 95.0307 247.529 94.6667 247.806 94.32C248.118 93.9387 248.517 93.748 249.002 93.748C249.453 93.748 249.782 93.8867 249.99 94.164C250.233 94.4067 250.354 94.736 250.354 95.152C250.354 95.7067 249.938 96.3307 249.106 97.024C248.309 97.6827 247.2 98.272 245.778 98.792C244.357 99.2773 242.728 99.52 240.89 99.52C238.29 99.52 236.002 98.9133 234.026 97.7C232.085 96.4867 230.56 94.84 229.45 92.76C228.376 90.6453 227.838 88.2707 227.838 85.636C227.838 83.1053 228.393 80.8 229.502 78.72C230.612 76.64 232.154 74.976 234.13 73.728C236.141 72.4453 238.464 71.804 241.098 71.804ZM261.356 97.44C261.356 97.856 261.2 98.22 260.888 98.532C260.576 98.844 260.212 99 259.796 99C259.346 99 258.964 98.844 258.652 98.532C258.375 98.22 258.236 97.856 258.236 97.44V73.52C258.236 73.104 258.375 72.74 258.652 72.428C258.964 72.116 259.346 71.96 259.796 71.96C260.247 71.96 260.611 72.116 260.888 72.428C261.2 72.74 261.356 73.104 261.356 73.52V97.44ZM259.796 68.476C259.068 68.476 258.514 68.32 258.132 68.008C257.786 67.6613 257.612 67.176 257.612 66.552V66.032C257.612 65.408 257.803 64.94 258.184 64.628C258.6 64.2813 259.155 64.108 259.848 64.108C260.507 64.108 261.01 64.2813 261.356 64.628C261.738 64.94 261.928 65.408 261.928 66.032V66.552C261.928 67.176 261.738 67.6613 261.356 68.008C261.01 68.32 260.49 68.476 259.796 68.476ZM293.278 72.428C293.728 72.428 294.092 72.584 294.37 72.896C294.682 73.208 294.838 73.5893 294.838 74.04V97.44C294.838 97.856 294.682 98.22 294.37 98.532C294.058 98.844 293.694 99 293.278 99C292.827 99 292.446 98.844 292.134 98.532C291.856 98.22 291.718 97.856 291.718 97.44V91.252L292.602 90.836C292.602 91.8067 292.324 92.7947 291.77 93.8C291.25 94.8053 290.522 95.7413 289.586 96.608C288.65 97.4747 287.54 98.1853 286.258 98.74C285.01 99.26 283.658 99.52 282.202 99.52C279.844 99.52 277.73 98.9133 275.858 97.7C274.02 96.4867 272.564 94.8227 271.49 92.708C270.45 90.5933 269.93 88.2187 269.93 85.584C269.93 82.88 270.467 80.5053 271.542 78.46C272.616 76.38 274.072 74.7507 275.91 73.572C277.747 72.3933 279.827 71.804 282.15 71.804C283.64 71.804 285.027 72.064 286.31 72.584C287.627 73.104 288.771 73.8147 289.742 74.716C290.712 75.6173 291.458 76.6573 291.978 77.836C292.532 78.98 292.81 80.176 292.81 81.424L291.718 80.644V74.04C291.718 73.5893 291.856 73.208 292.134 72.896C292.446 72.584 292.827 72.428 293.278 72.428ZM282.462 96.608C284.299 96.608 285.928 96.14 287.35 95.204C288.771 94.2333 289.88 92.916 290.678 91.252C291.51 89.5533 291.926 87.664 291.926 85.584C291.926 83.5387 291.51 81.7013 290.678 80.072C289.88 78.4427 288.771 77.1427 287.35 76.172C285.928 75.2013 284.299 74.716 282.462 74.716C280.659 74.716 279.03 75.184 277.574 76.12C276.152 77.056 275.026 78.3387 274.194 79.968C273.396 81.5973 272.998 83.4693 272.998 85.584C272.998 87.664 273.396 89.5533 274.194 91.252C275.026 92.916 276.152 94.2333 277.574 95.204C278.995 96.14 280.624 96.608 282.462 96.608Z" fill="#139DEB"/>
<path d="M54.32 17.33V21.25H45.01V17.33C45.01 17.05 44.8 16.84 44.52 16.84H13.65C13.37 16.84 13.16 17.05 13.16 17.33V48.27C13.16 48.55 13.37 48.76 13.65 48.76H44.52C44.8 48.76 45.01 48.55 45.01 48.27V38.75H33.6V29.51H54.32V48.27C54.32 53.66 49.91 58 44.52 58H13.65C8.26 58 3.92 53.66 3.92 48.27V17.33C3.92 11.94 8.26 7.6 13.65 7.6H44.52C49.91 7.6 54.32 11.94 54.32 17.33ZM77.4255 7.6H108.295C113.685 7.6 118.095 11.94 118.095 17.33V58H108.785V41.06H76.9355V58H67.6955V17.33C67.6955 11.94 72.0355 7.6 77.4255 7.6ZM76.9355 31.82H108.785V17.33C108.785 17.05 108.575 16.84 108.295 16.84H77.4255C77.1455 16.84 76.9355 17.05 76.9355 17.33V31.82ZM160.021 29.44L178.291 7.6H188.441V58H179.131V21.04L160.021 43.79L140.841 21.04V58H131.601V7.6H141.681L160.021 29.44ZM248.552 7.6V16.84H211.522V28.18H241.342V37.42H211.522V48.76H248.552V58H202.212V7.6H248.552Z" fill="white"/>
</svg>
