<svg width="297" height="136" viewBox="0 0 297 136" fill="none" xmlns="http://www.w3.org/2000/svg">
<path d="M16.744 72.22C19.032 72.22 21.112 72.8093 22.984 73.988C24.856 75.132 26.312 76.744 27.352 78.824C28.4267 80.8693 28.964 83.1747 28.964 85.74C28.964 88.34 28.4267 90.68 27.352 92.76C26.312 94.8053 24.856 96.4173 22.984 97.596C21.1467 98.7747 19.084 99.364 16.796 99.364C14.7853 99.364 12.9307 98.896 11.232 97.96C9.568 96.9893 8.23333 95.7067 7.228 94.112V107.84C7.228 108.291 7.072 108.655 6.76 108.932C6.48267 109.244 6.11867 109.4 5.668 109.4C5.21733 109.4 4.836 109.244 4.524 108.932C4.24667 108.655 4.108 108.291 4.108 107.84V73.936C4.108 73.4853 4.24667 73.104 4.524 72.792C4.836 72.48 5.21733 72.324 5.668 72.324C6.11867 72.324 6.48267 72.48 6.76 72.792C7.072 73.104 7.228 73.4853 7.228 73.936V77.472C8.12933 75.8427 9.42933 74.56 11.128 73.624C12.8267 72.688 14.6987 72.22 16.744 72.22ZM16.484 96.452C18.2867 96.452 19.8987 96.0013 21.32 95.1C22.776 94.164 23.9027 92.8813 24.7 91.252C25.532 89.6227 25.948 87.7853 25.948 85.74C25.948 83.7293 25.532 81.9267 24.7 80.332C23.9027 78.7027 22.776 77.4373 21.32 76.536C19.8987 75.6 18.2867 75.132 16.484 75.132C14.6467 75.132 13 75.5827 11.544 76.484C10.088 77.3853 8.96133 78.6507 8.164 80.28C7.36667 81.8747 6.968 83.6947 6.968 85.74C6.968 87.7853 7.36667 89.6227 8.164 91.252C8.96133 92.8813 10.088 94.164 11.544 95.1C13 96.0013 14.6467 96.452 16.484 96.452ZM49.8453 71.804C50.5386 71.804 51.1626 71.9427 51.7172 72.22C52.2719 72.4973 52.5493 72.9133 52.5493 73.468C52.5493 73.9533 52.4106 74.352 52.1333 74.664C51.8559 74.9413 51.5266 75.08 51.1453 75.08C50.9719 75.08 50.6253 74.9933 50.1053 74.82C49.6199 74.6467 49.1519 74.56 48.7013 74.56C47.4186 74.56 46.1359 75.0627 44.8533 76.068C43.6053 77.0387 42.5653 78.304 41.7332 79.864C40.9359 81.424 40.5373 83.0013 40.5373 84.596V97.44C40.5373 97.8907 40.3813 98.272 40.0693 98.584C39.7919 98.8613 39.4279 99 38.9773 99C38.5266 99 38.1452 98.8613 37.8333 98.584C37.5559 98.272 37.4173 97.8907 37.4173 97.44V74.144C37.4173 73.6933 37.5559 73.3293 37.8333 73.052C38.1452 72.74 38.5266 72.584 38.9773 72.584C39.4279 72.584 39.7919 72.74 40.0693 73.052C40.3813 73.3293 40.5373 73.6933 40.5373 74.144V78.72C41.3346 76.744 42.5306 75.1147 44.1253 73.832C45.7546 72.5147 47.6613 71.8387 49.8453 71.804ZM82.8291 85.688C82.8291 88.288 82.2571 90.6453 81.1131 92.76C79.9691 94.8747 78.3918 96.5387 76.3811 97.752C74.3704 98.9307 72.1344 99.52 69.6731 99.52C67.2118 99.52 64.9758 98.9307 62.9651 97.752C60.9544 96.5387 59.3771 94.8747 58.2331 92.76C57.0891 90.6453 56.5171 88.288 56.5171 85.688C56.5171 83.088 57.0891 80.7307 58.2331 78.616C59.3771 76.5013 60.9544 74.8373 62.9651 73.624C64.9758 72.4107 67.2118 71.804 69.6731 71.804C72.1344 71.804 74.3704 72.4107 76.3811 73.624C78.3918 74.8373 79.9691 76.5013 81.1131 78.616C82.2571 80.7307 82.8291 83.088 82.8291 85.688ZM79.7091 85.688C79.7091 83.608 79.2758 81.736 78.4091 80.072C77.5424 78.408 76.3291 77.108 74.7691 76.172C73.2438 75.2013 71.5451 74.716 69.6731 74.716C67.8011 74.716 66.1024 75.2013 64.5771 76.172C63.0518 77.108 61.8384 78.408 60.9371 80.072C60.0704 81.736 59.6371 83.608 59.6371 85.688C59.6371 87.7333 60.0704 89.588 60.9371 91.252C61.8384 92.916 63.0518 94.2333 64.5771 95.204C66.1024 96.14 67.8011 96.608 69.6731 96.608C71.5451 96.608 73.2438 96.14 74.7691 95.204C76.3291 94.268 77.5424 92.968 78.4091 91.304C79.2758 89.64 79.7091 87.768 79.7091 85.688ZM100.495 63.484C99.3855 63.484 98.5189 63.848 97.8949 64.576C97.3055 65.304 97.0109 66.3093 97.0109 67.592V72.948H102.835C103.216 72.948 103.546 73.0867 103.823 73.364C104.135 73.6413 104.291 73.988 104.291 74.404C104.291 74.82 104.135 75.1667 103.823 75.444C103.546 75.7213 103.216 75.86 102.835 75.86H97.0109V97.44C97.0109 97.8907 96.8549 98.272 96.5429 98.584C96.2655 98.8613 95.9015 99 95.4509 99C95.0002 99 94.6189 98.8613 94.3069 98.584C94.0295 98.272 93.8909 97.8907 93.8909 97.44V75.86H90.0949C89.6789 75.86 89.3322 75.7213 89.0549 75.444C88.7775 75.132 88.6389 74.7853 88.6389 74.404C88.6389 73.9533 88.7775 73.6067 89.0549 73.364C89.3322 73.0867 89.6789 72.948 90.0949 72.948H93.8909V67.592C93.8909 65.408 94.5149 63.7267 95.7629 62.548C97.0455 61.3347 98.7442 60.728 100.859 60.728C101.83 60.728 102.731 60.884 103.563 61.196C104.395 61.4733 104.811 61.9413 104.811 62.6C104.811 63.016 104.672 63.3627 104.395 63.64C104.118 63.9173 103.806 64.056 103.459 64.056C103.147 64.056 102.766 63.9693 102.315 63.796C101.552 63.588 100.946 63.484 100.495 63.484ZM112.611 97.44C112.611 97.8907 112.455 98.272 112.143 98.584C111.866 98.8613 111.502 99 111.051 99C110.6 99 110.219 98.8613 109.907 98.584C109.63 98.272 109.491 97.8907 109.491 97.44V73.52C109.491 73.0693 109.63 72.7053 109.907 72.428C110.219 72.116 110.6 71.96 111.051 71.96C111.502 71.96 111.866 72.116 112.143 72.428C112.455 72.7053 112.611 73.0693 112.611 73.52V97.44ZM111.051 68.476C110.358 68.476 109.82 68.32 109.439 68.008C109.058 67.6613 108.867 67.176 108.867 66.552V66.032C108.867 65.408 109.058 64.94 109.439 64.628C109.855 64.2813 110.41 64.108 111.103 64.108C112.49 64.108 113.183 64.7493 113.183 66.032V66.552C113.183 67.176 112.992 67.6613 112.611 68.008C112.264 68.32 111.744 68.476 111.051 68.476ZM134.263 71.804C135.892 71.804 137.4 71.9947 138.787 72.376C140.208 72.7227 141.335 73.208 142.167 73.832C143.033 74.456 143.467 75.132 143.467 75.86C143.467 76.2413 143.328 76.588 143.051 76.9C142.808 77.212 142.496 77.368 142.115 77.368C141.768 77.368 141.473 77.2987 141.231 77.16C141.023 77.0213 140.78 76.8133 140.503 76.536C140.052 76.0853 139.619 75.756 139.203 75.548C138.683 75.3053 137.989 75.1147 137.123 74.976C136.291 74.8027 135.389 74.716 134.419 74.716C132.512 74.716 130.761 75.2013 129.167 76.172C127.607 77.1427 126.376 78.46 125.475 80.124C124.573 81.788 124.123 83.6253 124.123 85.636C124.123 87.716 124.556 89.588 125.423 91.252C126.289 92.916 127.485 94.2333 129.011 95.204C130.571 96.14 132.339 96.608 134.315 96.608C135.563 96.608 136.551 96.504 137.279 96.296C138.041 96.088 138.787 95.7933 139.515 95.412C139.757 95.2733 140.173 94.9613 140.763 94.476C141.04 94.2333 141.283 94.06 141.491 93.956C141.699 93.8173 141.924 93.748 142.167 93.748C142.583 93.748 142.912 93.8867 143.155 94.164C143.397 94.4067 143.519 94.736 143.519 95.152C143.519 95.7413 143.103 96.3827 142.271 97.076C141.439 97.7347 140.295 98.3067 138.839 98.792C137.383 99.2773 135.771 99.52 134.003 99.52C131.472 99.52 129.219 98.9307 127.243 97.752C125.267 96.5387 123.724 94.8747 122.615 92.76C121.54 90.6453 121.003 88.2707 121.003 85.636C121.003 83.1053 121.557 80.8 122.667 78.72C123.776 76.6053 125.336 74.924 127.347 73.676C129.357 72.428 131.663 71.804 134.263 71.804ZM154.526 97.44C154.526 97.8907 154.37 98.272 154.058 98.584C153.78 98.8613 153.416 99 152.966 99C152.515 99 152.134 98.8613 151.822 98.584C151.544 98.272 151.406 97.8907 151.406 97.44V73.52C151.406 73.0693 151.544 72.7053 151.822 72.428C152.134 72.116 152.515 71.96 152.966 71.96C153.416 71.96 153.78 72.116 154.058 72.428C154.37 72.7053 154.526 73.0693 154.526 73.52V97.44ZM152.966 68.476C152.272 68.476 151.735 68.32 151.354 68.008C150.972 67.6613 150.782 67.176 150.782 66.552V66.032C150.782 65.408 150.972 64.94 151.354 64.628C151.77 64.2813 152.324 64.108 153.018 64.108C154.404 64.108 155.098 64.7493 155.098 66.032V66.552C155.098 67.176 154.907 67.6613 154.526 68.008C154.179 68.32 153.659 68.476 152.966 68.476ZM187.123 84.18C187.123 84.596 186.967 84.96 186.655 85.272C186.343 85.5493 185.979 85.688 185.563 85.688H165.907C165.907 87.768 166.323 89.64 167.155 91.304C168.021 92.9333 169.235 94.2333 170.795 95.204C172.389 96.14 174.261 96.608 176.411 96.608C178.075 96.608 179.565 96.2613 180.883 95.568C182.2 94.8747 183.257 93.9907 184.055 92.916C184.436 92.604 184.8 92.448 185.147 92.448C185.493 92.448 185.805 92.5867 186.083 92.864C186.36 93.1413 186.499 93.4533 186.499 93.8C186.499 94.1813 186.325 94.5453 185.979 94.892C184.869 96.244 183.465 97.3533 181.767 98.22C180.103 99.0867 178.335 99.52 176.463 99.52C173.793 99.52 171.436 98.948 169.391 97.804C167.345 96.66 165.751 95.0653 164.607 93.02C163.463 90.94 162.891 88.548 162.891 85.844C162.891 83.0013 163.445 80.5227 164.555 78.408C165.699 76.2587 167.207 74.6293 169.079 73.52C170.951 72.376 172.944 71.804 175.059 71.804C177.139 71.804 179.08 72.2893 180.883 73.26C182.72 74.2307 184.211 75.652 185.355 77.524C186.499 79.396 187.088 81.6147 187.123 84.18ZM175.059 74.82C173.048 74.82 171.176 75.5133 169.443 76.9C167.744 78.2867 166.652 80.28 166.167 82.88H183.899V82.464C183.725 80.904 183.205 79.552 182.339 78.408C181.472 77.2293 180.38 76.3453 179.063 75.756C177.78 75.132 176.445 74.82 175.059 74.82ZM181.247 67.384C181.489 67.6613 181.611 67.956 181.611 68.268C181.611 68.4413 181.524 68.6147 181.351 68.788C181.177 68.9613 180.987 69.048 180.779 69.048C180.501 69.048 180.276 68.996 180.103 68.892C179.929 68.788 179.687 68.5973 179.375 68.32L175.267 65.044L171.315 68.372C171.245 68.4067 171.107 68.5107 170.899 68.684C170.725 68.8227 170.569 68.9267 170.431 68.996C170.292 69.0653 170.136 69.1 169.963 69.1C169.72 69.1 169.512 69.0133 169.339 68.84C169.165 68.6667 169.079 68.476 169.079 68.268C169.079 67.9907 169.217 67.7133 169.495 67.436L173.291 63.276C173.672 62.6867 174.244 62.392 175.007 62.392H175.839C176.255 62.392 176.584 62.4613 176.827 62.6C177.069 62.704 177.295 62.9293 177.503 63.276L181.247 67.384ZM208.113 71.804C211.337 71.804 213.695 72.7573 215.185 74.664C216.711 76.536 217.473 79.032 217.473 82.152V97.44C217.473 97.8907 217.317 98.272 217.005 98.584C216.693 98.8613 216.329 99 215.913 99C215.463 99 215.081 98.8613 214.769 98.584C214.492 98.272 214.353 97.8907 214.353 97.44V82.308C214.353 80.0547 213.781 78.2347 212.637 76.848C211.528 75.4267 209.795 74.716 207.437 74.716C205.947 74.716 204.525 75.0627 203.173 75.756C201.856 76.4493 200.781 77.3853 199.949 78.564C199.117 79.708 198.701 80.956 198.701 82.308V97.44C198.701 97.8907 198.545 98.272 198.233 98.584C197.956 98.8613 197.592 99 197.141 99C196.691 99 196.309 98.8613 195.997 98.584C195.72 98.272 195.581 97.8907 195.581 97.44V74.144C195.581 73.6933 195.72 73.3293 195.997 73.052C196.309 72.74 196.691 72.584 197.141 72.584C197.592 72.584 197.956 72.74 198.233 73.052C198.545 73.3293 198.701 73.6933 198.701 74.144V77.004C199.637 75.5133 200.972 74.2827 202.705 73.312C204.473 72.3067 206.276 71.804 208.113 71.804ZM239.164 71.804C240.793 71.804 242.301 71.9947 243.688 72.376C245.109 72.7227 246.236 73.208 247.068 73.832C247.935 74.456 248.368 75.132 248.368 75.86C248.368 76.2413 248.229 76.588 247.952 76.9C247.709 77.212 247.397 77.368 247.016 77.368C246.669 77.368 246.375 77.2987 246.132 77.16C245.924 77.0213 245.681 76.8133 245.404 76.536C244.953 76.0853 244.52 75.756 244.104 75.548C243.584 75.3053 242.891 75.1147 242.024 74.976C241.192 74.8027 240.291 74.716 239.32 74.716C237.413 74.716 235.663 75.2013 234.068 76.172C232.508 77.1427 231.277 78.46 230.376 80.124C229.475 81.788 229.024 83.6253 229.024 85.636C229.024 87.716 229.457 89.588 230.324 91.252C231.191 92.916 232.387 94.2333 233.912 95.204C235.472 96.14 237.24 96.608 239.216 96.608C240.464 96.608 241.452 96.504 242.18 96.296C242.943 96.088 243.688 95.7933 244.416 95.412C244.659 95.2733 245.075 94.9613 245.664 94.476C245.941 94.2333 246.184 94.06 246.392 93.956C246.6 93.8173 246.825 93.748 247.068 93.748C247.484 93.748 247.813 93.8867 248.056 94.164C248.299 94.4067 248.42 94.736 248.42 95.152C248.42 95.7413 248.004 96.3827 247.172 97.076C246.34 97.7347 245.196 98.3067 243.74 98.792C242.284 99.2773 240.672 99.52 238.904 99.52C236.373 99.52 234.12 98.9307 232.144 97.752C230.168 96.5387 228.625 94.8747 227.516 92.76C226.441 90.6453 225.904 88.2707 225.904 85.636C225.904 83.1053 226.459 80.8 227.568 78.72C228.677 76.6053 230.237 74.924 232.248 73.676C234.259 72.428 236.564 71.804 239.164 71.804ZM259.427 97.44C259.427 97.8907 259.271 98.272 258.959 98.584C258.681 98.8613 258.317 99 257.867 99C257.416 99 257.035 98.8613 256.723 98.584C256.445 98.272 256.307 97.8907 256.307 97.44V73.52C256.307 73.0693 256.445 72.7053 256.723 72.428C257.035 72.116 257.416 71.96 257.867 71.96C258.317 71.96 258.681 72.116 258.959 72.428C259.271 72.7053 259.427 73.0693 259.427 73.52V97.44ZM257.867 68.476C257.173 68.476 256.636 68.32 256.255 68.008C255.873 67.6613 255.683 67.176 255.683 66.552V66.032C255.683 65.408 255.873 64.94 256.255 64.628C256.671 64.2813 257.225 64.108 257.919 64.108C259.305 64.108 259.999 64.7493 259.999 66.032V66.552C259.999 67.176 259.808 67.6613 259.427 68.008C259.08 68.32 258.56 68.476 257.867 68.476ZM291.14 72.428C291.591 72.428 291.955 72.584 292.232 72.896C292.544 73.208 292.7 73.5893 292.7 74.04V97.44C292.7 97.8907 292.544 98.272 292.232 98.584C291.955 98.8613 291.591 99 291.14 99C290.689 99 290.308 98.8613 289.996 98.584C289.719 98.272 289.58 97.8907 289.58 97.44V93.956C288.713 95.516 287.413 96.8333 285.68 97.908C283.947 98.9827 282.057 99.52 280.012 99.52C277.689 99.52 275.592 98.9133 273.72 97.7C271.883 96.4867 270.427 94.8227 269.352 92.708C268.312 90.5933 267.792 88.2187 267.792 85.584C267.792 82.9493 268.329 80.592 269.404 78.512C270.479 76.3973 271.935 74.7507 273.772 73.572C275.644 72.3933 277.707 71.804 279.96 71.804C282.04 71.804 283.947 72.3067 285.68 73.312C287.413 74.3173 288.713 75.6347 289.58 77.264V74.04C289.58 73.5893 289.719 73.208 289.996 72.896C290.308 72.584 290.689 72.428 291.14 72.428ZM280.324 96.608C282.127 96.608 283.739 96.14 285.16 95.204C286.616 94.2333 287.743 92.916 288.54 91.252C289.372 89.5533 289.788 87.664 289.788 85.584C289.788 83.5733 289.372 81.736 288.54 80.072C287.743 78.408 286.616 77.108 285.16 76.172C283.739 75.2013 282.127 74.716 280.324 74.716C278.521 74.716 276.892 75.184 275.436 76.12C274.015 77.056 272.888 78.356 272.056 80.02C271.259 81.6493 270.86 83.504 270.86 85.584C270.86 87.664 271.259 89.5533 272.056 91.252C272.853 92.916 273.963 94.2333 275.384 95.204C276.84 96.14 278.487 96.608 280.324 96.608Z" fill="#139DEB"/>
<path d="M11 106H297" stroke="white" stroke-width="0.5"/>
<path d="M14.8488 129.56C14.8488 129.677 14.8048 129.78 14.7168 129.868C14.6288 129.956 14.5261 130 14.4088 130C14.2768 130 14.1668 129.956 14.0788 129.868C14.0055 129.78 13.9688 129.677 13.9688 129.56V119.11C13.9688 118.993 14.0128 118.89 14.1008 118.802C14.1888 118.714 14.2915 118.67 14.4088 118.67C14.5408 118.67 14.6435 118.714 14.7168 118.802C14.8048 118.89 14.8488 118.993 14.8488 119.11V129.56ZM14.4088 117.174C14.1741 117.174 13.9835 117.108 13.8368 116.976C13.7048 116.844 13.6388 116.675 13.6388 116.47V116.294C13.6388 116.089 13.7121 115.92 13.8588 115.788C14.0055 115.656 14.1961 115.59 14.4308 115.59C14.6361 115.59 14.8048 115.656 14.9368 115.788C15.0835 115.92 15.1568 116.089 15.1568 116.294V116.47C15.1568 116.675 15.0835 116.844 14.9368 116.976C14.8048 117.108 14.6288 117.174 14.4088 117.174ZM36.036 118.67C37.3413 118.67 38.324 119.059 38.984 119.836C39.644 120.599 39.974 121.596 39.974 122.828V129.56C39.974 129.677 39.93 129.78 39.842 129.868C39.754 129.956 39.6513 130 39.534 130C39.402 130 39.292 129.956 39.204 129.868C39.1307 129.78 39.094 129.677 39.094 129.56V122.916C39.094 121.919 38.83 121.105 38.302 120.474C37.7887 119.829 37.004 119.506 35.948 119.506C35.3027 119.506 34.6647 119.66 34.034 119.968C33.418 120.276 32.912 120.694 32.516 121.222C32.12 121.75 31.922 122.315 31.922 122.916V129.56C31.922 129.677 31.878 129.78 31.79 129.868C31.702 129.956 31.5993 130 31.482 130C31.35 130 31.24 129.956 31.152 129.868C31.0787 129.78 31.042 129.677 31.042 129.56V119.462C31.042 119.345 31.086 119.242 31.174 119.154C31.262 119.066 31.3647 119.022 31.482 119.022C31.614 119.022 31.7167 119.066 31.79 119.154C31.878 119.242 31.922 119.345 31.922 119.462V120.936C32.3473 120.276 32.9413 119.733 33.704 119.308C34.4813 118.883 35.2587 118.67 36.036 118.67ZM60.2639 118.934C60.3665 118.934 60.4619 118.978 60.5499 119.066C60.6379 119.154 60.6819 119.249 60.6819 119.352C60.6819 119.469 60.6379 119.572 60.5499 119.66C60.4765 119.733 60.3812 119.77 60.2639 119.77H57.8439V127.602C57.8439 128.247 57.9539 128.68 58.1739 128.9C58.4085 129.105 58.7019 129.208 59.0539 129.208C59.1125 129.208 59.1932 129.193 59.2959 129.164C59.4132 129.135 59.5085 129.12 59.5819 129.12C59.6845 129.12 59.7725 129.164 59.8459 129.252C59.9192 129.325 59.9559 129.413 59.9559 129.516C59.9559 129.648 59.8679 129.765 59.6919 129.868C59.5159 129.956 59.3105 130 59.0759 130C58.7092 130 58.4012 129.978 58.1519 129.934C57.9025 129.875 57.6385 129.677 57.3599 129.34C57.0959 128.988 56.9639 128.423 56.9639 127.646V119.77H55.1599C55.0572 119.77 54.9619 119.726 54.8739 119.638C54.7859 119.55 54.7419 119.455 54.7419 119.352C54.7419 119.235 54.7785 119.139 54.8519 119.066C54.9399 118.978 55.0425 118.934 55.1599 118.934H56.9639V116.14C56.9639 116.023 57.0079 115.92 57.0959 115.832C57.1839 115.744 57.2865 115.7 57.4039 115.7C57.5359 115.7 57.6385 115.744 57.7119 115.832C57.7999 115.92 57.8439 116.023 57.8439 116.14V118.934H60.2639ZM84.2554 127.36C84.358 127.36 84.446 127.404 84.5194 127.492C84.5927 127.565 84.6294 127.653 84.6294 127.756C84.6294 127.859 84.6 127.947 84.5414 128.02C84.0574 128.665 83.456 129.193 82.7374 129.604C82.0187 130.015 81.2487 130.22 80.4274 130.22C79.3274 130.22 78.352 129.985 77.5014 129.516C76.6507 129.047 75.9834 128.379 75.4994 127.514C75.03 126.649 74.7954 125.644 74.7954 124.5C74.7954 123.327 75.0227 122.3 75.4774 121.42C75.9467 120.525 76.5627 119.843 77.3254 119.374C78.088 118.905 78.902 118.67 79.7674 118.67C80.6327 118.67 81.432 118.861 82.1654 119.242C82.9134 119.609 83.522 120.166 83.9914 120.914C84.4607 121.662 84.71 122.586 84.7394 123.686C84.7394 123.803 84.6954 123.913 84.6074 124.016C84.5194 124.104 84.4167 124.148 84.2994 124.148H75.6534V124.434C75.6534 125.343 75.8367 126.179 76.2034 126.942C76.57 127.69 77.1127 128.284 77.8314 128.724C78.55 129.164 79.4154 129.384 80.4274 129.384C81.1314 129.384 81.7914 129.215 82.4074 128.878C83.038 128.526 83.5294 128.086 83.8814 127.558C83.984 127.426 84.1087 127.36 84.2554 127.36ZM79.7674 119.55C79.2247 119.55 78.6674 119.697 78.0954 119.99C77.538 120.269 77.0394 120.694 76.5994 121.266C76.174 121.823 75.888 122.505 75.7414 123.312H83.8374V123.114C83.764 122.366 83.522 121.728 83.1114 121.2C82.7154 120.657 82.2167 120.247 81.6154 119.968C81.0287 119.689 80.4127 119.55 79.7674 119.55ZM105.13 118.67C105.805 118.67 106.142 118.839 106.142 119.176C106.142 119.308 106.105 119.418 106.032 119.506C105.959 119.594 105.863 119.638 105.746 119.638C105.702 119.638 105.592 119.609 105.416 119.55C105.255 119.477 105.079 119.44 104.888 119.44C104.287 119.44 103.685 119.682 103.084 120.166C102.483 120.635 101.991 121.237 101.61 121.97C101.229 122.689 101.038 123.385 101.038 124.06V129.56C101.038 129.677 100.994 129.78 100.906 129.868C100.818 129.956 100.715 130 100.598 130C100.466 130 100.356 129.956 100.268 129.868C100.195 129.78 100.158 129.677 100.158 129.56V119.462C100.158 119.345 100.202 119.242 100.29 119.154C100.378 119.066 100.481 119.022 100.598 119.022C100.73 119.022 100.833 119.066 100.906 119.154C100.994 119.242 101.038 119.345 101.038 119.462V121.794C101.375 120.899 101.896 120.159 102.6 119.572C103.319 118.985 104.162 118.685 105.13 118.67ZM125.902 118.89C126.87 118.89 127.742 119.132 128.52 119.616C129.297 120.1 129.906 120.767 130.346 121.618C130.786 122.469 131.006 123.429 131.006 124.5C131.006 125.556 130.778 126.517 130.324 127.382C129.884 128.233 129.275 128.907 128.498 129.406C127.72 129.89 126.855 130.132 125.902 130.132C125.022 130.132 124.215 129.912 123.482 129.472C122.748 129.032 122.147 128.409 121.678 127.602V133.96C121.678 134.077 121.634 134.18 121.546 134.268C121.472 134.356 121.37 134.4 121.238 134.4C121.12 134.4 121.018 134.356 120.93 134.268C120.842 134.18 120.798 134.077 120.798 133.96V119.33C120.798 119.213 120.834 119.11 120.908 119.022C120.996 118.934 121.106 118.89 121.238 118.89C121.37 118.89 121.472 118.934 121.546 119.022C121.634 119.11 121.678 119.213 121.678 119.33V121.354C122.118 120.518 122.704 119.902 123.438 119.506C124.171 119.095 124.992 118.89 125.902 118.89ZM125.858 129.296C126.664 129.296 127.39 129.091 128.036 128.68C128.681 128.269 129.187 127.697 129.554 126.964C129.935 126.231 130.126 125.409 130.126 124.5C130.126 123.591 129.935 122.777 129.554 122.058C129.187 121.325 128.681 120.753 128.036 120.342C127.39 119.931 126.664 119.726 125.858 119.726C125.036 119.726 124.296 119.931 123.636 120.342C122.99 120.738 122.484 121.303 122.118 122.036C121.766 122.755 121.59 123.576 121.59 124.5C121.59 125.424 121.766 126.253 122.118 126.986C122.484 127.705 122.99 128.269 123.636 128.68C124.296 129.091 125.036 129.296 125.858 129.296ZM151.394 118.67C152.068 118.67 152.406 118.839 152.406 119.176C152.406 119.308 152.369 119.418 152.296 119.506C152.222 119.594 152.127 119.638 152.01 119.638C151.966 119.638 151.856 119.609 151.68 119.55C151.518 119.477 151.342 119.44 151.152 119.44C150.55 119.44 149.949 119.682 149.348 120.166C148.746 120.635 148.255 121.237 147.874 121.97C147.492 122.689 147.302 123.385 147.302 124.06V129.56C147.302 129.677 147.258 129.78 147.17 129.868C147.082 129.956 146.979 130 146.862 130C146.73 130 146.62 129.956 146.532 129.868C146.458 129.78 146.422 129.677 146.422 129.56V119.462C146.422 119.345 146.466 119.242 146.554 119.154C146.642 119.066 146.744 119.022 146.862 119.022C146.994 119.022 147.096 119.066 147.17 119.154C147.258 119.242 147.302 119.345 147.302 119.462V121.794C147.639 120.899 148.16 120.159 148.864 119.572C149.582 118.985 150.426 118.685 151.394 118.67ZM175.257 127.36C175.36 127.36 175.448 127.404 175.521 127.492C175.594 127.565 175.631 127.653 175.631 127.756C175.631 127.859 175.602 127.947 175.543 128.02C175.059 128.665 174.458 129.193 173.739 129.604C173.02 130.015 172.25 130.22 171.429 130.22C170.329 130.22 169.354 129.985 168.503 129.516C167.652 129.047 166.985 128.379 166.501 127.514C166.032 126.649 165.797 125.644 165.797 124.5C165.797 123.327 166.024 122.3 166.479 121.42C166.948 120.525 167.564 119.843 168.327 119.374C169.09 118.905 169.904 118.67 170.769 118.67C171.634 118.67 172.434 118.861 173.167 119.242C173.915 119.609 174.524 120.166 174.993 120.914C175.462 121.662 175.712 122.586 175.741 123.686C175.741 123.803 175.697 123.913 175.609 124.016C175.521 124.104 175.418 124.148 175.301 124.148H166.655V124.434C166.655 125.343 166.838 126.179 167.205 126.942C167.572 127.69 168.114 128.284 168.833 128.724C169.552 129.164 170.417 129.384 171.429 129.384C172.133 129.384 172.793 129.215 173.409 128.878C174.04 128.526 174.531 128.086 174.883 127.558C174.986 127.426 175.11 127.36 175.257 127.36ZM170.769 119.55C170.226 119.55 169.669 119.697 169.097 119.99C168.54 120.269 168.041 120.694 167.601 121.266C167.176 121.823 166.89 122.505 166.743 123.312H174.839V123.114C174.766 122.366 174.524 121.728 174.113 121.2C173.717 120.657 173.218 120.247 172.617 119.968C172.03 119.689 171.414 119.55 170.769 119.55ZM195.252 118.934C195.355 118.934 195.45 118.978 195.538 119.066C195.626 119.154 195.67 119.249 195.67 119.352C195.67 119.469 195.626 119.572 195.538 119.66C195.465 119.733 195.369 119.77 195.252 119.77H192.832V127.602C192.832 128.247 192.942 128.68 193.162 128.9C193.397 129.105 193.69 129.208 194.042 129.208C194.101 129.208 194.181 129.193 194.284 129.164C194.401 129.135 194.497 129.12 194.57 129.12C194.673 129.12 194.761 129.164 194.834 129.252C194.907 129.325 194.944 129.413 194.944 129.516C194.944 129.648 194.856 129.765 194.68 129.868C194.504 129.956 194.299 130 194.064 130C193.697 130 193.389 129.978 193.14 129.934C192.891 129.875 192.627 129.677 192.348 129.34C192.084 128.988 191.952 128.423 191.952 127.646V119.77H190.148C190.045 119.77 189.95 119.726 189.862 119.638C189.774 119.55 189.73 119.455 189.73 119.352C189.73 119.235 189.767 119.139 189.84 119.066C189.928 118.978 190.031 118.934 190.148 118.934H191.952V116.14C191.952 116.023 191.996 115.92 192.084 115.832C192.172 115.744 192.275 115.7 192.392 115.7C192.524 115.7 192.627 115.744 192.7 115.832C192.788 115.92 192.832 116.023 192.832 116.14V118.934H195.252ZM219.659 119.022C219.791 119.022 219.894 119.066 219.967 119.154C220.055 119.242 220.099 119.345 220.099 119.462V129.56C220.099 129.677 220.055 129.78 219.967 129.868C219.879 129.956 219.776 130 219.659 130C219.527 130 219.417 129.956 219.329 129.868C219.256 129.78 219.219 129.677 219.219 129.56V127.58C218.852 128.328 218.288 128.959 217.525 129.472C216.762 129.971 215.919 130.22 214.995 130.22C214.027 130.22 213.154 129.971 212.377 129.472C211.6 128.959 210.991 128.262 210.551 127.382C210.111 126.487 209.891 125.49 209.891 124.39C209.891 123.305 210.111 122.329 210.551 121.464C211.006 120.584 211.622 119.902 212.399 119.418C213.176 118.919 214.042 118.67 214.995 118.67C215.948 118.67 216.806 118.919 217.569 119.418C218.332 119.917 218.882 120.584 219.219 121.42V119.462C219.219 119.345 219.256 119.242 219.329 119.154C219.417 119.066 219.527 119.022 219.659 119.022ZM215.039 129.384C215.846 129.384 216.572 129.171 217.217 128.746C217.877 128.306 218.39 127.705 218.757 126.942C219.124 126.179 219.307 125.329 219.307 124.39C219.307 123.495 219.124 122.674 218.757 121.926C218.39 121.178 217.877 120.591 217.217 120.166C216.572 119.726 215.846 119.506 215.039 119.506C214.232 119.506 213.499 119.719 212.839 120.144C212.194 120.555 211.688 121.134 211.321 121.882C210.954 122.615 210.771 123.451 210.771 124.39C210.771 125.329 210.954 126.179 211.321 126.942C211.688 127.705 212.194 128.306 212.839 128.746C213.484 129.171 214.218 129.384 215.039 129.384ZM244.491 128.042C244.608 128.042 244.696 128.079 244.755 128.152C244.828 128.225 244.865 128.321 244.865 128.438C244.865 128.629 244.711 128.863 244.403 129.142C244.095 129.406 243.662 129.648 243.105 129.868C242.562 130.073 241.946 130.191 241.257 130.22L240.003 132.772C239.9 132.992 239.746 133.102 239.541 133.102C239.409 133.102 239.247 133.043 239.057 132.926C238.866 132.809 238.771 132.669 238.771 132.508C238.771 132.376 238.807 132.273 238.881 132.2L240.509 130.198C239.526 130.125 238.653 129.831 237.891 129.318C237.143 128.805 236.556 128.123 236.131 127.272C235.72 126.421 235.515 125.475 235.515 124.434C235.515 123.407 235.742 122.454 236.197 121.574C236.666 120.694 237.319 119.99 238.155 119.462C239.005 118.934 239.973 118.67 241.059 118.67C241.689 118.67 242.298 118.743 242.885 118.89C243.486 119.037 243.963 119.235 244.315 119.484C244.681 119.719 244.865 119.968 244.865 120.232C244.865 120.349 244.821 120.452 244.733 120.54C244.659 120.628 244.564 120.672 244.447 120.672C244.315 120.672 244.212 120.65 244.139 120.606C244.08 120.562 243.992 120.481 243.875 120.364C243.684 120.144 243.486 119.983 243.281 119.88C242.753 119.631 242.005 119.506 241.037 119.506C240.201 119.506 239.423 119.726 238.705 120.166C238.001 120.606 237.436 121.207 237.011 121.97C236.6 122.718 236.395 123.539 236.395 124.434C236.395 125.373 236.585 126.223 236.967 126.986C237.363 127.734 237.913 128.321 238.617 128.746C239.335 129.171 240.142 129.384 241.037 129.384C241.623 129.384 242.085 129.333 242.423 129.23C242.76 129.127 243.097 128.981 243.435 128.79C243.669 128.643 243.875 128.482 244.051 128.306C244.124 128.233 244.197 128.174 244.271 128.13C244.344 128.071 244.417 128.042 244.491 128.042ZM269.102 119.022C269.234 119.022 269.337 119.066 269.41 119.154C269.498 119.242 269.542 119.345 269.542 119.462V129.56C269.542 129.677 269.498 129.78 269.41 129.868C269.322 129.956 269.219 130 269.102 130C268.97 130 268.86 129.956 268.772 129.868C268.699 129.78 268.662 129.677 268.662 129.56V127.58C268.295 128.328 267.731 128.959 266.968 129.472C266.205 129.971 265.362 130.22 264.438 130.22C263.47 130.22 262.597 129.971 261.82 129.472C261.043 128.959 260.434 128.262 259.994 127.382C259.554 126.487 259.334 125.49 259.334 124.39C259.334 123.305 259.554 122.329 259.994 121.464C260.449 120.584 261.065 119.902 261.842 119.418C262.619 118.919 263.485 118.67 264.438 118.67C265.391 118.67 266.249 118.919 267.012 119.418C267.775 119.917 268.325 120.584 268.662 121.42V119.462C268.662 119.345 268.699 119.242 268.772 119.154C268.86 119.066 268.97 119.022 269.102 119.022ZM264.482 129.384C265.289 129.384 266.015 129.171 266.66 128.746C267.32 128.306 267.833 127.705 268.2 126.942C268.567 126.179 268.75 125.329 268.75 124.39C268.75 123.495 268.567 122.674 268.2 121.926C267.833 121.178 267.32 120.591 266.66 120.166C266.015 119.726 265.289 119.506 264.482 119.506C263.675 119.506 262.942 119.719 262.282 120.144C261.637 120.555 261.131 121.134 260.764 121.882C260.397 122.615 260.214 123.451 260.214 124.39C260.214 125.329 260.397 126.179 260.764 126.942C261.131 127.705 261.637 128.306 262.282 128.746C262.927 129.171 263.661 129.384 264.482 129.384ZM261.82 117.284C261.585 117.284 261.468 117.181 261.468 116.976C261.468 116.932 261.497 116.778 261.556 116.514C261.673 116.059 261.893 115.722 262.216 115.502C262.539 115.282 262.898 115.172 263.294 115.172C263.514 115.172 263.749 115.231 263.998 115.348C264.247 115.451 264.548 115.612 264.9 115.832C265.208 116.008 265.457 116.147 265.648 116.25C265.853 116.338 266.037 116.382 266.198 116.382C266.638 116.382 266.902 116.067 266.99 115.436C267.005 115.319 267.049 115.223 267.122 115.15C267.195 115.077 267.291 115.04 267.408 115.04C267.657 115.04 267.782 115.15 267.782 115.37C267.782 115.443 267.775 115.517 267.76 115.59C267.745 115.663 267.731 115.729 267.716 115.788C267.511 116.741 266.946 117.218 266.022 117.218C265.831 117.218 265.619 117.167 265.384 117.064C265.149 116.961 264.871 116.807 264.548 116.602C264.475 116.558 264.335 116.485 264.13 116.382C263.925 116.265 263.749 116.184 263.602 116.14C263.455 116.081 263.323 116.052 263.206 116.052C262.737 116.052 262.414 116.36 262.238 116.976C262.179 117.181 262.04 117.284 261.82 117.284ZM295.804 124.456C295.804 125.541 295.569 126.524 295.1 127.404C294.631 128.269 293.978 128.959 293.142 129.472C292.321 129.971 291.404 130.22 290.392 130.22C289.38 130.22 288.456 129.971 287.62 129.472C286.799 128.959 286.146 128.262 285.662 127.382C285.193 126.502 284.958 125.527 284.958 124.456C284.958 123.371 285.193 122.388 285.662 121.508C286.146 120.628 286.799 119.939 287.62 119.44C288.441 118.927 289.365 118.67 290.392 118.67C291.404 118.67 292.321 118.927 293.142 119.44C293.978 119.939 294.631 120.628 295.1 121.508C295.569 122.388 295.804 123.371 295.804 124.456ZM294.924 124.456C294.924 123.517 294.726 122.674 294.33 121.926C293.949 121.178 293.413 120.591 292.724 120.166C292.035 119.726 291.257 119.506 290.392 119.506C289.541 119.506 288.764 119.726 288.06 120.166C287.371 120.591 286.828 121.178 286.432 121.926C286.036 122.674 285.838 123.517 285.838 124.456C285.838 125.38 286.036 126.216 286.432 126.964C286.828 127.712 287.371 128.306 288.06 128.746C288.764 129.171 289.541 129.384 290.392 129.384C291.257 129.384 292.035 129.171 292.724 128.746C293.413 128.321 293.949 127.734 294.33 126.986C294.726 126.223 294.924 125.38 294.924 124.456Z" fill="white"/>
<path d="M54.32 17.33V21.25H45.01V17.33C45.01 17.0033 44.8467 16.84 44.52 16.84H13.65C13.3233 16.84 13.16 17.0033 13.16 17.33V48.27C13.16 48.5967 13.3233 48.76 13.65 48.76H44.52C44.8467 48.76 45.01 48.5967 45.01 48.27V38.75H33.6V29.51H54.32V48.27C54.32 50.9767 53.3633 53.2867 51.45 55.2C49.5367 57.0667 47.2267 58 44.52 58H13.65C10.9433 58 8.63333 57.0667 6.72 55.2C4.85333 53.2867 3.92 50.9767 3.92 48.27V17.33C3.92 14.6233 4.85333 12.3367 6.72 10.47C8.63333 8.55666 10.9433 7.6 13.65 7.6H44.52C47.2267 7.6 49.5367 8.55666 51.45 10.47C53.3633 12.3367 54.32 14.6233 54.32 17.33ZM77.4255 7.6H108.295C111.002 7.6 113.312 8.55666 115.225 10.47C117.139 12.3367 118.095 14.6233 118.095 17.33V58H108.785V41.06H76.9355V58H67.6955V17.33C67.6955 14.6233 68.6288 12.3367 70.4955 10.47C72.4088 8.55666 74.7188 7.6 77.4255 7.6ZM76.9355 31.82H108.785V17.33C108.785 17.0033 108.622 16.84 108.295 16.84H77.4255C77.0988 16.84 76.9355 17.0033 76.9355 17.33V31.82ZM160.021 29.44L178.291 7.6H188.441V58H179.131V21.04L160.021 43.79L140.841 21.04V58H131.601V7.6H141.681L160.021 29.44ZM248.552 7.6V16.84H211.522V28.18H241.342V37.42H211.522V48.76H248.552V58H202.212V7.6H248.552Z" fill="white"/>
</svg>
