<svg width="21" height="22" viewBox="0 0 21 22" fill="none" xmlns="http://www.w3.org/2000/svg">
<path d="M15.0426 17.8323L13.9614 18.6141V21.9999" stroke="url(#paint0_linear_158_589)" stroke-width="0.6" stroke-miterlimit="10"/>
<path d="M11.7925 18.088V16.1255" stroke="url(#paint1_linear_158_589)" stroke-width="0.6" stroke-miterlimit="10"/>
<path d="M15.6765 14.7258L13.2285 16.5912V19.9261" stroke="url(#paint2_linear_158_589)" stroke-width="0.6" stroke-miterlimit="10"/>
<path d="M12.4985 17.7607V20.9567" stroke="url(#paint3_linear_158_589)" stroke-width="0.6" stroke-miterlimit="10"/>
<path d="M1.07422 9.7417L2.75502 11.5748H5.11989L5.96445 11.1103L6.6145 11.1426" stroke="url(#paint4_linear_158_589)" stroke-width="0.6" stroke-miterlimit="10"/>
<path d="M13.8901 17.4038V17.0771L15.1582 16.2434" stroke="url(#paint5_linear_158_589)" stroke-width="0.6" stroke-miterlimit="10"/>
<path d="M16.6206 15.2897H17.2397L19.0555 13.5165L19.0139 12.0701" stroke="url(#paint6_linear_158_589)" stroke-width="0.6" stroke-miterlimit="10"/>
<path d="M14.2026 12.12L12.7939 10.8679V9.18797L13.5962 8.52808H16.7739" stroke="url(#paint7_linear_158_589)" stroke-width="0.6" stroke-miterlimit="10"/>
<path d="M19.1978 9.01465L20.1325 9.94933V11.9225" stroke="url(#paint8_linear_158_589)" stroke-width="0.6" stroke-miterlimit="10"/>
<path d="M7.52197 1.80799L8.54089 1H12.5936" stroke="url(#paint9_linear_158_589)" stroke-width="0.6" stroke-miterlimit="10"/>
<path d="M2.07959 9.57104L3.13378 10.6249" stroke="url(#paint10_linear_158_589)" stroke-width="0.6" stroke-miterlimit="10"/>
<path d="M2.97607 9.18799L4.41853 10.6299" stroke="url(#paint11_linear_158_589)" stroke-width="0.6" stroke-miterlimit="10"/>
<path d="M8.10791 10.4983H10.055V11.5748L8.4473 13.1817" stroke="url(#paint12_linear_158_589)" stroke-width="0.6" stroke-miterlimit="10"/>
<path d="M19.5942 12.7003V10.7947" stroke="url(#paint13_linear_158_589)" stroke-width="0.6" stroke-miterlimit="10"/>
<path d="M17.5867 4.14478H18.9733L19.557 5.05981V7.75379H17.9576L17.1519 6.66547" stroke="url(#paint14_linear_158_589)" stroke-width="0.6" stroke-miterlimit="10"/>
<path d="M20.1328 8.08104V6.62524" stroke="url(#paint15_linear_158_589)" stroke-width="0.6" stroke-miterlimit="10"/>
<path d="M11.3806 9.04592H7.31627L5.41602 7.01537V5.94921L6.66144 4.90698" stroke="url(#paint16_linear_158_589)" stroke-width="0.6" stroke-miterlimit="10"/>
<path d="M8.10791 6.42432H11.37V7.82772" stroke="url(#paint17_linear_158_589)" stroke-width="0.6" stroke-miterlimit="10"/>
<path d="M10.0552 8.29211V7.56421H7.89697" stroke="url(#paint18_linear_158_589)" stroke-width="0.6" stroke-miterlimit="10"/>
<path d="M0 8.52808H1.6929" stroke="url(#paint19_linear_158_589)" stroke-width="0.6" stroke-miterlimit="10"/>
<path d="M2.03125 6.91235H3.66267" stroke="url(#paint20_linear_158_589)" stroke-width="0.6" stroke-miterlimit="10"/>
<path d="M9.07617 9.90894H10.7693" stroke="url(#paint21_linear_158_589)" stroke-width="0.6" stroke-miterlimit="10"/>
<path d="M10.1968 3.43185L10.9519 2.677" stroke="url(#paint22_linear_158_589)" stroke-width="0.6" stroke-miterlimit="10"/>
<path d="M3.07473 7.56456H0.84668V6.21379L1.76607 5.10205" stroke="url(#paint23_linear_158_589)" stroke-width="0.6" stroke-miterlimit="10"/>
<path d="M17.5248 4.93856L15.8359 4.86426V6.55303L15.0811 7.02176" stroke="url(#paint24_linear_158_589)" stroke-width="0.6" stroke-miterlimit="10"/>
<path d="M16.1946 7.75391H14.1621" stroke="url(#paint25_linear_158_589)" stroke-width="0.6" stroke-miterlimit="10"/>
<path d="M11.9932 1.9707H13.4331L15.3895 3.63832H16.4057" stroke="url(#paint26_linear_158_589)" stroke-width="0.6" stroke-miterlimit="10"/>
<path d="M17.8999 5.94531L18.6265 6.76237" stroke="url(#paint27_linear_158_589)" stroke-width="0.6" stroke-miterlimit="10"/>
<path d="M9.01758 5.39641L9.6384 4.77808L12.4984 4.86396L13.8902 6.00392H14.6833" stroke="url(#paint28_linear_158_589)" stroke-width="0.6" stroke-miterlimit="10"/>
<path d="M13.9255 3.71249L12.9585 2.99341" stroke="url(#paint29_linear_158_589)" stroke-width="0.6" stroke-miterlimit="10"/>
<path d="M12.4111 3.62671L13.8899 4.77825H14.9" stroke="url(#paint30_linear_158_589)" stroke-width="0.6" stroke-miterlimit="10"/>
<path d="M17.6725 9.5481H13.9614V10.4981L14.7347 11.1875" stroke="url(#paint31_linear_158_589)" stroke-width="0.6" stroke-miterlimit="10"/>
<path d="M5.93287 1.73877H4.31783L2.81592 3.24015L3.22333 4.75337" stroke="url(#paint32_linear_158_589)" stroke-width="0.6" stroke-miterlimit="10"/>
<path d="M4.72217 5.27211L6.59799 3.89162H8.87542L10.1284 2.6416" stroke="url(#paint33_linear_158_589)" stroke-width="0.6" stroke-miterlimit="10"/>
<path d="M9.11899 2.15991L8.49867 2.80444H6.13381L4.93701 3.79554" stroke="url(#paint34_linear_158_589)" stroke-width="0.6" stroke-miterlimit="10"/>
<path d="M3.84131 3.37168L4.63825 2.59644" stroke="url(#paint35_linear_158_589)" stroke-width="0.6" stroke-miterlimit="10"/>
<path d="M8.13016 5.07202L6.58643 6.29962" stroke="url(#paint36_linear_158_589)" stroke-width="0.6" stroke-miterlimit="10"/>
<path d="M16.3955 11.4719V13.4174" stroke="url(#paint37_linear_158_589)" stroke-width="0.6" stroke-miterlimit="10"/>
<path d="M17.1343 11.4719V13.4174" stroke="url(#paint38_linear_158_589)" stroke-width="0.6" stroke-miterlimit="10"/>
<path d="M17.8735 11.4719V13.4174" stroke="url(#paint39_linear_158_589)" stroke-width="0.6" stroke-miterlimit="10"/>
<path d="M6.77909 9.71733H5.24669L4.36963 8.6814" stroke="url(#paint40_linear_158_589)" stroke-width="0.6" stroke-miterlimit="10"/>
<path d="M12.0361 11.7596C11.8353 11.7561 11.159 11.7596 11.159 11.7596L10.0552 12.6301V14.4032" stroke="url(#paint41_linear_158_589)" stroke-width="0.6" stroke-miterlimit="10"/>
<path d="M11.1968 13.1623L11.8798 12.6301H13.2281L14.8842 13.8542L13.0985 15.1705" stroke="url(#paint42_linear_158_589)" stroke-width="0.6" stroke-miterlimit="10"/>
<path d="M13.3152 13.802L12.4268 14.4815" stroke="url(#paint43_linear_158_589)" stroke-width="0.6" stroke-miterlimit="10"/>
<path d="M12.3489 13.7646L11.4116 14.4817" stroke="url(#paint44_linear_158_589)" stroke-width="0.6" stroke-miterlimit="10"/>
<defs>
<linearGradient id="paint0_linear_158_589" x1="13.9614" y1="19.9161" x2="15.0426" y2="19.9161" gradientUnits="userSpaceOnUse">
<stop stop-color="#6E28E0"/>
<stop offset="1" stop-color="#139DEB"/>
</linearGradient>
<linearGradient id="paint1_linear_158_589" x1="11.7925" y1="17.1068" x2="12.7925" y2="17.1068" gradientUnits="userSpaceOnUse">
<stop stop-color="#6E28E0"/>
<stop offset="1" stop-color="#139DEB"/>
</linearGradient>
<linearGradient id="paint2_linear_158_589" x1="13.2285" y1="17.326" x2="15.6765" y2="17.326" gradientUnits="userSpaceOnUse">
<stop stop-color="#6E28E0"/>
<stop offset="1" stop-color="#139DEB"/>
</linearGradient>
<linearGradient id="paint3_linear_158_589" x1="12.4985" y1="19.3587" x2="13.4985" y2="19.3587" gradientUnits="userSpaceOnUse">
<stop stop-color="#6E28E0"/>
<stop offset="1" stop-color="#139DEB"/>
</linearGradient>
<linearGradient id="paint4_linear_158_589" x1="1.07422" y1="10.6582" x2="6.6145" y2="10.6582" gradientUnits="userSpaceOnUse">
<stop stop-color="#6E28E0"/>
<stop offset="1" stop-color="#139DEB"/>
</linearGradient>
<linearGradient id="paint5_linear_158_589" x1="13.8901" y1="16.8236" x2="15.1582" y2="16.8236" gradientUnits="userSpaceOnUse">
<stop stop-color="#6E28E0"/>
<stop offset="1" stop-color="#139DEB"/>
</linearGradient>
<linearGradient id="paint6_linear_158_589" x1="16.6206" y1="13.6799" x2="19.0555" y2="13.6799" gradientUnits="userSpaceOnUse">
<stop stop-color="#6E28E0"/>
<stop offset="1" stop-color="#139DEB"/>
</linearGradient>
<linearGradient id="paint7_linear_158_589" x1="12.7939" y1="10.324" x2="16.7739" y2="10.324" gradientUnits="userSpaceOnUse">
<stop stop-color="#6E28E0"/>
<stop offset="1" stop-color="#139DEB"/>
</linearGradient>
<linearGradient id="paint8_linear_158_589" x1="19.1978" y1="10.4686" x2="20.1325" y2="10.4686" gradientUnits="userSpaceOnUse">
<stop stop-color="#6E28E0"/>
<stop offset="1" stop-color="#139DEB"/>
</linearGradient>
<linearGradient id="paint9_linear_158_589" x1="7.52197" y1="1.404" x2="12.5936" y2="1.404" gradientUnits="userSpaceOnUse">
<stop stop-color="#6E28E0"/>
<stop offset="1" stop-color="#139DEB"/>
</linearGradient>
<linearGradient id="paint10_linear_158_589" x1="2.07959" y1="10.098" x2="3.13378" y2="10.098" gradientUnits="userSpaceOnUse">
<stop stop-color="#6E28E0"/>
<stop offset="1" stop-color="#139DEB"/>
</linearGradient>
<linearGradient id="paint11_linear_158_589" x1="2.97607" y1="9.90896" x2="4.41853" y2="9.90896" gradientUnits="userSpaceOnUse">
<stop stop-color="#6E28E0"/>
<stop offset="1" stop-color="#139DEB"/>
</linearGradient>
<linearGradient id="paint12_linear_158_589" x1="8.10791" y1="11.84" x2="10.055" y2="11.84" gradientUnits="userSpaceOnUse">
<stop stop-color="#6E28E0"/>
<stop offset="1" stop-color="#139DEB"/>
</linearGradient>
<linearGradient id="paint13_linear_158_589" x1="19.5942" y1="11.7475" x2="20.5942" y2="11.7475" gradientUnits="userSpaceOnUse">
<stop stop-color="#6E28E0"/>
<stop offset="1" stop-color="#139DEB"/>
</linearGradient>
<linearGradient id="paint14_linear_158_589" x1="17.1519" y1="5.94928" x2="19.557" y2="5.94928" gradientUnits="userSpaceOnUse">
<stop stop-color="#6E28E0"/>
<stop offset="1" stop-color="#139DEB"/>
</linearGradient>
<linearGradient id="paint15_linear_158_589" x1="20.1328" y1="7.35314" x2="21.1328" y2="7.35314" gradientUnits="userSpaceOnUse">
<stop stop-color="#6E28E0"/>
<stop offset="1" stop-color="#139DEB"/>
</linearGradient>
<linearGradient id="paint16_linear_158_589" x1="5.41602" y1="6.97645" x2="11.3806" y2="6.97645" gradientUnits="userSpaceOnUse">
<stop stop-color="#6E28E0"/>
<stop offset="1" stop-color="#139DEB"/>
</linearGradient>
<linearGradient id="paint17_linear_158_589" x1="8.10791" y1="7.12602" x2="11.37" y2="7.12602" gradientUnits="userSpaceOnUse">
<stop stop-color="#6E28E0"/>
<stop offset="1" stop-color="#139DEB"/>
</linearGradient>
<linearGradient id="paint18_linear_158_589" x1="7.89697" y1="7.92816" x2="10.0552" y2="7.92816" gradientUnits="userSpaceOnUse">
<stop stop-color="#6E28E0"/>
<stop offset="1" stop-color="#139DEB"/>
</linearGradient>
<linearGradient id="paint19_linear_158_589" x1="0" y1="9.02808" x2="1.6929" y2="9.02808" gradientUnits="userSpaceOnUse">
<stop stop-color="#6E28E0"/>
<stop offset="1" stop-color="#139DEB"/>
</linearGradient>
<linearGradient id="paint20_linear_158_589" x1="2.03125" y1="7.41235" x2="3.66267" y2="7.41235" gradientUnits="userSpaceOnUse">
<stop stop-color="#6E28E0"/>
<stop offset="1" stop-color="#139DEB"/>
</linearGradient>
<linearGradient id="paint21_linear_158_589" x1="9.07617" y1="10.4089" x2="10.7693" y2="10.4089" gradientUnits="userSpaceOnUse">
<stop stop-color="#6E28E0"/>
<stop offset="1" stop-color="#139DEB"/>
</linearGradient>
<linearGradient id="paint22_linear_158_589" x1="10.1968" y1="3.05443" x2="10.9519" y2="3.05443" gradientUnits="userSpaceOnUse">
<stop stop-color="#6E28E0"/>
<stop offset="1" stop-color="#139DEB"/>
</linearGradient>
<linearGradient id="paint23_linear_158_589" x1="0.84668" y1="6.3333" x2="3.07473" y2="6.3333" gradientUnits="userSpaceOnUse">
<stop stop-color="#6E28E0"/>
<stop offset="1" stop-color="#139DEB"/>
</linearGradient>
<linearGradient id="paint24_linear_158_589" x1="15.0811" y1="5.94301" x2="17.5248" y2="5.94301" gradientUnits="userSpaceOnUse">
<stop stop-color="#6E28E0"/>
<stop offset="1" stop-color="#139DEB"/>
</linearGradient>
<linearGradient id="paint25_linear_158_589" x1="14.1621" y1="8.25391" x2="16.1946" y2="8.25391" gradientUnits="userSpaceOnUse">
<stop stop-color="#6E28E0"/>
<stop offset="1" stop-color="#139DEB"/>
</linearGradient>
<linearGradient id="paint26_linear_158_589" x1="11.9932" y1="2.80451" x2="16.4057" y2="2.80451" gradientUnits="userSpaceOnUse">
<stop stop-color="#6E28E0"/>
<stop offset="1" stop-color="#139DEB"/>
</linearGradient>
<linearGradient id="paint27_linear_158_589" x1="17.8999" y1="6.35384" x2="18.6265" y2="6.35384" gradientUnits="userSpaceOnUse">
<stop stop-color="#6E28E0"/>
<stop offset="1" stop-color="#139DEB"/>
</linearGradient>
<linearGradient id="paint28_linear_158_589" x1="9.01758" y1="5.391" x2="14.6833" y2="5.391" gradientUnits="userSpaceOnUse">
<stop stop-color="#6E28E0"/>
<stop offset="1" stop-color="#139DEB"/>
</linearGradient>
<linearGradient id="paint29_linear_158_589" x1="12.9585" y1="3.35295" x2="13.9255" y2="3.35295" gradientUnits="userSpaceOnUse">
<stop stop-color="#6E28E0"/>
<stop offset="1" stop-color="#139DEB"/>
</linearGradient>
<linearGradient id="paint30_linear_158_589" x1="12.4111" y1="4.20248" x2="14.9" y2="4.20248" gradientUnits="userSpaceOnUse">
<stop stop-color="#6E28E0"/>
<stop offset="1" stop-color="#139DEB"/>
</linearGradient>
<linearGradient id="paint31_linear_158_589" x1="13.9614" y1="10.3678" x2="17.6725" y2="10.3678" gradientUnits="userSpaceOnUse">
<stop stop-color="#6E28E0"/>
<stop offset="1" stop-color="#139DEB"/>
</linearGradient>
<linearGradient id="paint32_linear_158_589" x1="2.81592" y1="3.24607" x2="5.93287" y2="3.24607" gradientUnits="userSpaceOnUse">
<stop stop-color="#6E28E0"/>
<stop offset="1" stop-color="#139DEB"/>
</linearGradient>
<linearGradient id="paint33_linear_158_589" x1="4.72217" y1="3.95685" x2="10.1284" y2="3.95685" gradientUnits="userSpaceOnUse">
<stop stop-color="#6E28E0"/>
<stop offset="1" stop-color="#139DEB"/>
</linearGradient>
<linearGradient id="paint34_linear_158_589" x1="4.93701" y1="2.97773" x2="9.11899" y2="2.97773" gradientUnits="userSpaceOnUse">
<stop stop-color="#6E28E0"/>
<stop offset="1" stop-color="#139DEB"/>
</linearGradient>
<linearGradient id="paint35_linear_158_589" x1="3.84131" y1="2.98406" x2="4.63825" y2="2.98406" gradientUnits="userSpaceOnUse">
<stop stop-color="#6E28E0"/>
<stop offset="1" stop-color="#139DEB"/>
</linearGradient>
<linearGradient id="paint36_linear_158_589" x1="6.58643" y1="5.68582" x2="8.13016" y2="5.68582" gradientUnits="userSpaceOnUse">
<stop stop-color="#6E28E0"/>
<stop offset="1" stop-color="#139DEB"/>
</linearGradient>
<linearGradient id="paint37_linear_158_589" x1="16.3955" y1="12.4446" x2="17.3955" y2="12.4446" gradientUnits="userSpaceOnUse">
<stop stop-color="#6E28E0"/>
<stop offset="1" stop-color="#139DEB"/>
</linearGradient>
<linearGradient id="paint38_linear_158_589" x1="17.1343" y1="12.4446" x2="18.1343" y2="12.4446" gradientUnits="userSpaceOnUse">
<stop stop-color="#6E28E0"/>
<stop offset="1" stop-color="#139DEB"/>
</linearGradient>
<linearGradient id="paint39_linear_158_589" x1="17.8735" y1="12.4446" x2="18.8735" y2="12.4446" gradientUnits="userSpaceOnUse">
<stop stop-color="#6E28E0"/>
<stop offset="1" stop-color="#139DEB"/>
</linearGradient>
<linearGradient id="paint40_linear_158_589" x1="4.36963" y1="9.19936" x2="6.77909" y2="9.19936" gradientUnits="userSpaceOnUse">
<stop stop-color="#6E28E0"/>
<stop offset="1" stop-color="#139DEB"/>
</linearGradient>
<linearGradient id="paint41_linear_158_589" x1="10.0552" y1="13.0806" x2="12.0361" y2="13.0806" gradientUnits="userSpaceOnUse">
<stop stop-color="#6E28E0"/>
<stop offset="1" stop-color="#139DEB"/>
</linearGradient>
<linearGradient id="paint42_linear_158_589" x1="11.1968" y1="13.9003" x2="14.8842" y2="13.9003" gradientUnits="userSpaceOnUse">
<stop stop-color="#6E28E0"/>
<stop offset="1" stop-color="#139DEB"/>
</linearGradient>
<linearGradient id="paint43_linear_158_589" x1="12.4268" y1="14.1418" x2="13.3152" y2="14.1418" gradientUnits="userSpaceOnUse">
<stop stop-color="#6E28E0"/>
<stop offset="1" stop-color="#139DEB"/>
</linearGradient>
<linearGradient id="paint44_linear_158_589" x1="11.4116" y1="14.1232" x2="12.3489" y2="14.1232" gradientUnits="userSpaceOnUse">
<stop stop-color="#6E28E0"/>
<stop offset="1" stop-color="#139DEB"/>
</linearGradient>
</defs>
</svg>
